<?xml version="1.0" encoding="UTF-8" standalone="no"?>
<!-- Created with Inkscape (http://www.inkscape.org/) -->

<svg
   width="500mm"
   height="170mm"
   viewBox="0 0 500 170"
   version="1.1"
   id="svg286"
   sodipodi:docname="title.svg"
   inkscape:version="1.2.2 (b0a8486541, 2022-12-01)"
   xmlns:inkscape="http://www.inkscape.org/namespaces/inkscape"
   xmlns:sodipodi="http://sodipodi.sourceforge.net/DTD/sodipodi-0.dtd"
   xmlns="http://www.w3.org/2000/svg"
   xmlns:svg="http://www.w3.org/2000/svg">
  <sodipodi:namedview
     id="namedview19"
     pagecolor="#ffffff"
     bordercolor="#000000"
     borderopacity="0.25"
     inkscape:showpageshadow="2"
     inkscape:pageopacity="0.0"
     inkscape:pagecheckerboard="0"
     inkscape:deskcolor="#d1d1d1"
     inkscape:document-units="mm"
     showgrid="false"
     inkscape:zoom="0.46992128"
     inkscape:cx="449.01137"
     inkscape:cy="330.90648"
     inkscape:window-width="1920"
     inkscape:window-height="1008"
     inkscape:window-x="315"
     inkscape:window-y="1440"
     inkscape:window-maximized="1"
     inkscape:current-layer="svg286" />
  <defs
     id="defs283" />
  <g
     id="layer1"
     transform="translate(0.45528464,-27.386691)">
    <g
       id="g364"
       transform="translate(169.19883,32.040795)">
      <path
         style="fill:#ffffff;stroke:#000000;stroke-width:1.82007;stroke-linecap:square;stroke-linejoin:bevel;stroke-miterlimit:22.6;stroke-dasharray:none;stroke-opacity:1;paint-order:stroke fill markers"
         d="M -6.2772644,49.391162 C -6.4476825,25.646977 -6.3184336,26.87647 -8.7686075,25.690369 c -2.2313105,-1.080188 -2.1559575,-1.538208 -2.3708255,14.407673 -0.107765,7.996502 -0.540078,15.069873 -0.425794,15.723632 2.6707546,15.277782 -4.505634,24.116877 2.6455768,23.375276 2.7301931,-0.283131 2.7966379,-8.31432 2.6423858,-29.805788 z"
         id="path29835" />
      <path
         style="fill:#ffffff;stroke:#000000;stroke-width:1.82007;stroke-linecap:square;stroke-linejoin:bevel;stroke-miterlimit:22.6;stroke-dasharray:none;stroke-opacity:1;paint-order:stroke fill markers"
         d="m -31.020304,61.416395 c 0.499216,-11.317447 -0.0048,-37.506037 -0.727366,-37.790067 -2.785665,-1.095111 -5.305134,-0.104352 -4.363773,1.716008 0.486358,0.940541 0.541735,3.191722 0.500804,20.362492 -0.0254,10.617782 0.0061,29.127661 0.06996,29.184256 0.351366,0.311785 3.560021,1.84859 3.88747,1.861925 0.265879,0.01085 0.463999,-11.505406 0.632909,-15.334614 z"
         id="path29837" />
      <path
         style="fill:#ffffff;stroke:#000000;stroke-width:1.82007;stroke-linecap:square;stroke-linejoin:bevel;stroke-miterlimit:22.6;stroke-dasharray:none;stroke-opacity:1;paint-order:stroke fill markers"
         d="m -87.401426,136.34967 c 3.213055,-0.0829 2.92868,0.40048 2.598242,-4.4165 -0.510807,-7.44627 -1.273209,-32.678793 -1.405607,-58.73107 -0.07205,-14.174443 -0.484028,-24.573415 -0.671353,-26.126545 -0.158195,-1.311487 -0.539671,-7.090675 -1.140275,-14.390635 -0.190844,-2.319311 -0.19013,-2.321718 0.562769,-1.918758 1.86563,1.55149 1.766728,3.706098 2.53188,5.498677 1.012216,2.335106 2.113597,7.63852 4.940008,23.787443 0.697389,3.984546 2.33344,11.908817 3.703453,17.937745 0.380682,1.675315 0.910828,4.036007 1.178057,5.245946 0.532315,2.410143 2.131219,12.47267 3.414924,21.491447 0.450427,3.16449 0.987372,6.89588 1.193191,8.29198 0.629735,4.27123 2.263958,9.78533 3.321709,12.86598 0.552847,1.61017 0.96451,3.42064 0.69427,3.75814 -0.532776,0.6654 -3.549121,-10.1808 -5.200836,-17.80868 -2.064094,-9.53238 -3.106234,-14.606139 -3.602037,-17.536664 -0.645954,-3.818096 -5.264176,-20.011999 -6.369262,-21.802434 -0.843322,-1.641157 -1.858623,-3.801454 -2.37355,-5.277855 -0.779973,-2.598711 -0.885288,-3.783198 -1.188374,-2.073513 -0.164253,2.691844 -0.485648,5.000757 1.162683,9.968838 1.174591,3.54031 2.898193,10.183442 6.278589,24.199056 1.803267,7.476702 2.746084,11.654362 3.01699,13.368682 0.132371,0.83767 0.445982,2.43684 0.696886,3.5537 0.250931,1.11688 0.861643,3.85831 1.357181,6.09208 3.070595,13.84197 4.11635,16.4782 9.649846,12.5471 0.920618,-0.65405 0.920618,-0.65405 2.674593,0.73239 3.535363,2.79453 3.883142,8.42206 4.07642,-54.450083 0.159279,-51.812957 0.20402,-55.085403 0.761497,-55.701353 1.552046,-1.714791 0.887333,-2.231787 -2.63271,-2.047663 -1.773767,0.09279 -3.263159,0.227779 -3.309779,0.299958 -0.108108,0.167455 0.294455,38.667954 0.631852,60.427604 0.204893,13.214588 0.350403,22.478837 0.0064,23.309337 -0.256646,0.61958 0.18729,2.01391 -0.522219,2.20692 -0.624631,0.16992 -0.369446,-0.9512 -0.407331,-2.72359 -0.251894,-11.784386 0.173196,-19.795546 -0.42291,-24.946057 -1.761146,-15.217034 -2.316269,-49.957249 -0.877676,-54.925462 0.931598,-3.217228 0.609071,-3.725149 -2.365216,-3.725149 -2.971139,0 -4.024789,34.770669 -1.697355,56.013138 0.183568,1.675315 0.491225,6.47282 0.683683,10.661121 0.192458,4.188301 0.439566,10.065969 0.831956,13.030249 1.372873,10.37127 1.736619,10.74571 0.809572,10.17413 -0.862417,-0.53176 -1.801918,-11.11779 -2.36257,-13.665224 -0.560652,-2.547408 -1.242854,-6.002364 -1.51601,-7.677706 -0.273156,-1.675315 -1.185148,-5.86359 -2.026655,-9.3073 -1.84584,-7.553881 -3.04345,-13.666894 -4.707679,-24.029829 -0.943715,-5.876316 -3.320846,-16.154796 -4.928102,-22.150678 -2.551245,-9.517459 -0.143748,-10.463107 -1.070547,-11.792717 -1.254958,-1.80041 -1.024927,-0.953188 -6.523749,-0.697283 -4.771893,0.222065 -5.098441,-0.28538 -5.318707,2.318888 -0.18198,2.151644 0.284427,38.872609 0.731044,57.554229 0.720249,30.12945 0.843544,47.52022 -0.212117,50.09084 -1.206658,2.93825 -1.050078,3.35518 1.091512,2.90674 0.898234,-0.1881 2.812283,-0.37241 4.253416,-0.40961 z"
         id="path29833" />
      <path
         style="fill:#ffffff;stroke:#000000;stroke-width:1.82007;stroke-linecap:square;stroke-linejoin:bevel;stroke-miterlimit:22.6;stroke-dasharray:none;stroke-opacity:1;paint-order:stroke fill markers"
         d="m -131.89913,135.88843 c 6.277,-0.73028 12.85087,0.78419 19.11977,-0.0459 6.02708,-2.8502 9.13418,-11.00876 8.68564,-17.43908 0.61822,-23.156654 0.0593,-46.325396 0.0488,-69.486809 -0.0451,-8.338793 -0.0732,-16.677772 -0.0535,-25.016697 -3.92615,-3.43498 -6.78659,2.238639 -5.08283,5.650097 2.27843,30.30265 0.67654,59.117917 -0.16917,88.403689 -0.30353,4.11697 -0.89781,10.26661 -4.55248,12.71337 1.38362,-3.41017 2.08794,-8.33298 1.91728,-12.18465 0.64651,-17.95735 0.0614,-35.932558 0.24455,-53.897157 0.0209,-12.957704 0.0583,-25.918557 -0.33424,-38.871869 1.49603,-4.683522 -5.87436,-3.724804 -3.78479,0.697944 0.0254,25.145974 1.05169,50.289857 -0.72654,74.629832 -0.0591,7.2562 -0.18201,14.59235 -1.89514,21.66876 -1.24801,5.7426 -11.9875,4.13753 -10.6876,-2.35574 -1.61089,-20.3286 -0.98433,-38.355349 -1.57425,-58.727922 -0.21727,-11.664685 1.38354,-24.680703 1.21449,-36.345521 -1.49185,-4.636584 -7.62198,-1.935718 -4.99657,1.918494 -0.45588,28.850669 -2.32336,58.569463 -0.0775,86.601639 0.2344,4.89011 0.10618,9.46582 2.36625,14.62352 -2.49833,3.96391 -5.46431,-3.87611 -5.97876,-6.28157 -2.27849,-9.10051 -2.22769,-36.20183 -2.44057,-45.479577 0.27188,-21.889613 1.27087,-27.21594 2.07817,-49.078355 1.20843,-2.599531 1.60644,-5.678832 -2.55604,-4.620339 -5.71957,-1.775778 -5.41385,4.561575 -4.86693,8.265212 -0.0114,28.798573 -0.147,57.599262 0.30425,86.395529 1.19409,6.53934 2.74664,13.66957 7.70771,18.40212 1.91711,1.12842 4.07786,-0.12825 6.08999,-0.13901 z"
         id="path29831" />
      <path
         style="fill:#ffffff;stroke:#000000;stroke-width:1.82007;stroke-linecap:square;stroke-linejoin:bevel;stroke-miterlimit:22.6;stroke-dasharray:none;stroke-opacity:1;paint-order:stroke fill markers"
         d="m -36.924878,136.04464 c 6.10461,-0.0111 7.435057,0.0891 5.951009,-3.05681 -1.220655,-2.58747 -3.75389,-15.60254 -1.481847,-36.516817 0.584203,-5.377603 -0.129445,-9.191942 0.502957,-11.367161 0.767739,-2.640727 2.013971,-7.470007 -2.002377,-7.282603 -1.780207,0.08305 -0.337606,3.113643 -0.994542,5.716455 -0.656937,2.602812 -0.839198,9.383421 -1.235988,12.915212 -0.361146,3.591484 -2.054349,33.322044 -1.043218,34.333204 0.717788,0.71776 0.705459,1.06884 -0.04442,1.26492 -1.642851,0.42961 -3.989507,1.29514 -1.597634,-33.492623 0.622358,-9.051687 -0.649221,-10.92962 0.171635,-13.036126 0.820857,-2.106481 0.914152,-4.904978 2.445626,-3.832067 1.531475,1.072886 2.788984,-4.057941 4.895702,-2.976827 1.30302,0.668682 5.280361,1.849755 5.74571,2.131563 0.465376,0.281834 1.959295,1.408192 3.050887,1.875525 1.984745,0.849657 2.094767,1.913176 1.897626,3.353118 -0.244423,1.785329 -0.466106,-5.20102 -0.254916,24.238217 0.209603,29.21931 -0.206587,27.1822 3.532875,27.0356 1.648222,-0.0646 3.10015,-0.22106 3.226515,-0.34764 0.286888,-0.28741 -0.414576,-16.65266 -0.840767,-19.41134 -0.395816,-2.56199 -0.761656,-31.940525 -0.39235,-32.168755 4.457541,-2.754921 7.109248,22.845425 4.09784,44.522125 -0.902785,6.49843 -1.069631,7.11891 2.5013178,7.11891 4.3321022,0 4.2142833,0.0759 3.8281768,-2.46558 -0.1757362,-1.15691 -0.4157265,-16.07584 -0.4373827,-31.8984 -0.01942,-14.182567 1.2053464,-23.05738 -0.782648,-25.522953 -0.9207633,-1.141968 -4.4466799,1.873594 -7.8578549,-0.648573 -1.035013,-0.765254 -1.305872,-4.369462 -1.301242,-6.529044 0.0056,-2.569395 0.327356,-2.458085 0.698553,-3.301603 0.371197,-0.843518 0.138641,-4.823539 -0.78985,-6.127591 -0.614654,-0.994542 -0.123095,-34.36649 0.509735,-34.999744 0.636138,-0.636535 0.792136,-1.046242 0.277231,-0.728001 -0.173302,0.107103 -0.410739,0.03992 -0.527659,-0.149252 -0.504137,-0.81571 -6.366986,-0.413676 -6.08875,0.417539 0.791554,2.364846 1.612302,36.511785 0.873188,44.766971 -0.219789,2.454989 2.54e-4,7.185818 -2.145437,6.169236 -3.792617,-1.241028 -10.093597,-0.337158 -12.88266,-1.015391 -7.064084,-1.120617 -3.543335,-10.20154 -3.603078,-32.474641 -0.03723,-13.88655 -0.148351,-18.419709 -0.4563,-18.615448 -0.85299,-0.542184 -5.996649,-0.311018 -6.223317,0.279691 -0.321548,0.837962 0.449315,7.866486 0.92575,8.440552 0.486278,0.58592 0.478605,3.648234 -0.05035,20.117171 -0.406823,12.666821 -0.407114,13.974841 -0.004,18.106971 0.681355,6.982646 0.160457,58.88868 -0.233521,60.25502 -0.991121,0.5571 -0.790009,1.62782 -0.820116,2.48838 0.03887,2.79267 0.271555,3.46861 1.107718,3.30136 0.836163,-0.16724 -0.796107,0.0585 0.826162,0.12692 1.622268,0.0684 0.921374,-0.99864 7.025983,-1.00967 z"
         id="path29829" />
      <path
         id="path29823"
         style="fill:#ffffff;stroke:#000000;stroke-width:1.82007;stroke-linecap:square;stroke-linejoin:bevel;stroke-miterlimit:22.6;stroke-dasharray:none;stroke-opacity:1;paint-order:stroke fill markers"
         d="m 27.22202,23.557563 c -1.233964,-0.0093 -2.763597,0.184494 -4.732528,0.184494 -9.792552,0 -7.865642,-1.252009 -10.909456,23.110771 C 10.161393,58.207713 7.1671671,81.890805 4.926178,99.481654 0.61834869,133.29609 0.39477048,135.93595 1.7511781,136.92845 c 1.2217664,0.894 2.6380122,0.46202 2.9331549,-0.8945 0.6535208,-3.00376 2.016289,-10.94343 2.9631269,-17.26097 1.0250435,-6.83966 2.6482171,-13.07394 3.6700591,-14.09578 0.346022,-0.34602 1.75151,-0.45617 5.76399,-0.45268 6.538394,0.006 11.583712,-0.6496 11.506242,0.74925 -0.155045,2.79982 4.226031,30.83658 3.147862,32.22834 -0.593296,0.76586 0.357608,1.16673 3.887219,0.56144 1.752097,-0.30043 2.372558,-0.54467 2.364197,-0.93067 -0.0061,-0.28786 -0.749543,-2.83535 -1.017831,-5.53442 -0.555175,-5.58519 -2.507239,-10.83238 -3.032622,-18.40743 -0.200104,-2.88528 -0.447868,-5.80851 -0.55087,-6.49624 -0.160338,-1.07058 3.605328,-1.76948 5.355463,-0.93935 0.214973,0.10195 1.102849,4.10401 1.75338,7.90237 1.01383,5.91957 1.890607,10.50599 3.033924,15.87293 0.773377,3.63038 0.981162,5.30085 0.815454,6.54997 -0.166264,1.25339 -0.103211,1.75202 0.249081,1.97509 0.77578,0.49125 6.048881,0.38219 6.245096,-0.12919 0.235188,-0.61286 -2.260246,-12.48368 -6.951515,-33.06826 C 41.650246,92.607568 40.011986,79.90352 38.465216,69.528943 32.512922,29.578368 32.569191,23.597965 27.22202,23.557563 Z m -8.343678,6.522429 c 0,0.03215 0.06326,0 0.09457,0.01085 0.551005,0.202539 2.516584,-0.924189 2.723623,3.6848 0.954471,13.773388 3.524689,35.783387 4.778949,49.10312 1.699863,17.880218 2.521146,16.473911 -6.625666,16.488145 -2.327013,0.0037 -4.745302,-0.06898 -5.374349,-0.220133 -1.789404,-0.430027 -1.791642,-0.444579 -1.614371,-11.172454 0.163115,-9.87089 3.495122,-52.023592 4.476408,-54.234 0.455893,-0.827247 0.816324,-3.134334 1.540838,-3.660352 z m 8.209394,0.347027 c 1.579271,-0.01323 1.794261,0.367956 2.291334,4.064873 3.114283,19.619383 6.051156,45.020679 8.563697,62.112921 0.826823,5.594717 0.764209,5.965167 -0.858345,5.082907 -2.149099,-1.08137 -2.186776,-0.61886 -4.349107,-1.64332 C 32.371248,99.680303 31.267801,91.610776 30.030374,80.399984 29.753011,77.886998 29.296422,74.07967 29.015964,71.939006 24.994541,41.24554 23.408049,30.458134 27.087736,30.427019 Z" />
      <path
         style="fill:#ffffff;stroke:#000000;stroke-width:1.82007;stroke-linecap:square;stroke-linejoin:bevel;stroke-miterlimit:22.6;stroke-dasharray:none;stroke-opacity:1;paint-order:stroke fill markers"
         d="m 237.67474,134.78498 c 1.1385,-4.18597 -3.83503,-2.44438 -8.05678,-3.73914 -3.87533,-0.49329 -8.89294,0.98689 -11.72465,-2.41374 -2.47552,-5.03508 -1.67617,-7.54846 -2.02265,-12.98959 -0.0149,-11.30882 -0.38326,-22.632352 0.0722,-33.932018 3.23018,-1.519979 7.85375,-1.15062 11.1827,-3.411088 6.16638,-3.292528 12.40794,-7.498847 15.9037,-13.721186 2.14856,-4.230846 -2.88338,-1.146916 -4.79711,-0.413993 -2.89665,6.204611 -10.13573,8.714078 -16.57968,8.181684 -3.9764,0.801581 -6.69769,-0.629021 -5.62237,-4.907571 -0.11273,-10.429426 -0.38749,-26.06503 0.0366,-36.48546 6.20939,-0.775943 12.54025,0.05239 18.72742,-0.816054 2.84012,-2.490152 1.40939,-8.131466 -3.26497,-6.549945 -7.33829,0.02434 -14.69648,-0.237226 -22.02133,0.24257 -2.58537,0.467333 1.12248,3.937396 -0.0929,5.980297 0.64895,28.971795 0.55468,63.147098 0.0574,92.120934 0.10728,5.98498 -1.17135,8.56509 -0.58365,14.53988 8.99115,0.70602 18.06261,0.59248 27.08571,0.44524 2.07922,0.25395 1.71625,-1.52098 1.7003,-2.13082 z"
         id="path29821" />
      <path
         style="fill:#ffffff;stroke:#000000;stroke-width:1.82007;stroke-linecap:square;stroke-linejoin:bevel;stroke-miterlimit:22.6;stroke-dasharray:none;stroke-opacity:1;paint-order:stroke fill markers"
         d="m 140.07462,85.689719 c 0.10796,-17.9764 0.0859,-39.172329 0.56392,-57.144999 1.77673,-2.897425 0.0564,-5.963126 -3.2409,-3.843152 -3.46168,3.243051 -1.69473,8.711882 -2.36115,12.977045 -0.25649,20.793419 0.73349,44.787661 0.582,65.580577 -1.48425,8.51712 0.60119,23.99824 -1.27547,22.77621 -1.85286,-1.20653 0.49242,-26.498792 -1.72945,-41.214361 -1.55834,-16.02404 -0.16779,-35.441757 0.34173,-51.522603 -0.36492,-2.763123 3.10084,-5.796068 -2.25735,-8.428037 -3.28446,-1.61335 -1.64643,9.814004 -2.31103,14.699773 -0.89787,16.157496 0.10877,35.536425 1.27575,51.64201 0.38539,8.684445 0.84964,25.031648 0.0884,22.859498 -3.25377,-9.2841 -4.74625,-24.144421 -7.62012,-37.587291 -2.98759,-13.974736 -2.90817,-32.188732 -6.30598,-46.08404 0.55956,-5.189405 1.47912,-6.187493 -8.75748,-7.051675 -5.5448,-0.468101 -3.09806,8.236797 -3.6641,12.234333 -0.50928,31.216309 1.42042,62.634918 0.54069,93.845193 0.46778,3.24011 -3.77283,8.70707 1.8979,7.41622 5.66537,1.5876 6.11289,-3.93769 5.18897,-7.95062 -1.42209,-27.62875 -0.17967,-55.53086 -1.3412,-83.159312 -0.40052,-4.329245 -1.9112,-11.103795 -0.25898,-14.00257 2.6,3.773725 2.89608,8.641132 4.10937,12.972653 2.74499,14.423839 5.15612,32.092158 8.40283,46.41281 0.87885,5.961169 2.29368,13.411999 4.09753,19.179009 1.71225,7.88988 1.42111,10.916 4.23989,18.56947 -0.0905,2.03287 -2.65015,-3.13172 -3.13456,-4.21976 -2.75986,-7.2671 -2.93806,-12.15496 -4.83987,-19.64037 -2.86204,-16.223085 -5.84799,-32.493346 -10.45494,-48.316275 -2.39937,0.946732 -0.7221,7.342769 0.0678,10.077053 1.89886,10.63834 3.01066,21.424106 5.57071,31.945447 2.63097,10.762085 4.74817,18.629625 7.21112,29.427355 1.2766,3.04742 1.34912,8.35337 5.1983,8.98924 2.73489,-0.73892 5.78906,-4.08752 7.86196,-0.30461 4.21094,0.14999 1.17199,-6.94492 2.17442,-9.78199 0.12121,-14.78616 0.10147,-26.56578 0.13937,-41.352231 z"
         id="path29819" />
      <path
         style="fill:#ffffff;stroke:#000000;stroke-width:1.82007;stroke-linecap:square;stroke-linejoin:bevel;stroke-miterlimit:22.6;stroke-dasharray:none;stroke-opacity:1;paint-order:stroke fill markers"
         d="m 69.263181,137.41153 c 0.853869,0 5.265897,-0.36635 9.840463,-0.44628 9.411599,-0.16441 8.939609,-0.0444 12.109397,-3.0802 2.216256,-2.12259 3.068717,-3.51342 4.477808,-7.30567 0.912522,-2.45586 1.048253,-15.38118 0.648203,-70.588478 -0.09308,-12.844092 -0.02156,-28.311978 0.06912,-29.801132 0.165073,-2.707587 0.165073,-2.707587 -2.65512,-2.806409 -2.820194,-0.09882 -2.820194,-0.09882 -2.611094,1.86145 0.114988,1.078177 0.22197,25.205663 0.327353,49.04478 0.233125,52.727779 0.205502,50.791189 -3.924591,56.005859 -1.544187,1.94972 -1.789615,1.68558 -0.82214,-0.88482 2.128203,-5.65412 2.011495,0.12348 1.898624,-53.45128 -0.114591,-54.393809 -3.200247,-51.783086 -5.695095,-50.998358 -3.462658,1.089131 1.23004,0.03003 1.213424,33.630632 -0.01693,34.235786 -0.415793,57.107086 -0.965174,58.680426 -0.194998,0.55843 -0.502311,2.23375 -0.682889,3.72293 -0.662887,5.46661 -3.831897,8.20155 -7.660233,8.63467 -2.585217,0.2925 -3.352204,-1.36093 -4.6937,-5.35858 C 68.047225,118.04194 67.476009,107.41466 66.955322,96.116631 65.79015,70.834423 64.31052,46.263072 65.12572,36.428219 c 0.456512,-5.507487 3.086701,-11.348773 0.421336,-11.614309 -4.366612,-0.435001 -4.22765,2.054437 -5.449742,17.133517 -0.846516,10.444956 1.639657,30.842135 1.787797,48.712199 0.225346,27.181144 5.022983,34.839224 5.46272,37.104324 0.718344,3.70043 0.707443,3.89215 -0.221324,3.89215 -1.529979,0 -3.919852,-2.32751 -4.910799,-7.39598 -6.845522,-35.01321 -5.975596,-83.620952 -4.997431,-94.205476 0.232251,-2.512986 0.442515,-4.949798 0.46728,-5.415174 0.04498,-0.846111 -0.0606,0.06437 -3.933454,-0.846111 -4.412218,-1.037272 -0.04529,69.147901 0.935257,96.127141 0.02029,0.55822 0.360918,1.39161 0.360918,1.93218 0,2.564 3.786214,11.40402 6.173576,14.41405 1.543817,1.94648 2.864117,1.1448 8.041243,1.1448 z"
         id="path29817" />
      <path
         id="path29809"
         style="fill:#ffffff;stroke:#000000;stroke-width:1.82007;stroke-linecap:square;stroke-linejoin:bevel;stroke-miterlimit:22.6;stroke-dasharray:none;stroke-opacity:1;paint-order:stroke fill markers"
         d="m 263.19947,25.655153 c -0.17658,4.126283 0.23901,8.453675 0.16252,12.657852 0.4991,31.893271 -0.8155,64.176065 -1.07485,96.063485 -1.3085,5.18943 7.88104,3.71877 6.13098,-1.13937 0.5789,-17.06536 -0.0253,-30.92405 0.24906,-47.996452 4.12279,-0.27215 11.94083,2.345875 15.84108,0.828596 0.95761,2.930975 -0.52974,7.924562 0.12692,11.608408 1.97476,14.697158 4.6164,13.591488 3.24842,38.239568 2.64856,3.00712 8.73169,-0.15375 5.65959,-3.40879 0.50846,-15.17705 -4.15486,-18.86206 -3.49641,-42.07581 0.0567,-4.2223 2.60813,-2.568628 4.74004,-1.879521 0.22105,5.193109 -0.91163,10.450645 -0.53942,15.694471 -0.0522,8.18235 1.96609,12.9762 4.963,20.5358 0.83297,3.53219 2.80326,8.12046 0.44317,11.32559 -4.87604,0.74779 3.1193,1.53498 4.62037,1.06548 3.43213,-1.65026 -0.13738,-8.03767 -0.28101,-11.41558 -1.96195,-7.90517 -4.2315,-12.59298 -4.78036,-20.75069 -0.0616,-5.88412 0.25269,-12.504154 4.21168,-17.198656 4.16144,-1.253569 4.78383,-4.807426 1.26801,-7.520728 -2.95946,-3.264853 -7.96,-3.074511 -6.40552,-7.729061 1.93669,-8.496115 5.38841,-25.250113 4.94067,-34.00978 -1.08139,-4.270216 -3.61637,-8.897831 -7.55774,-11.065668 -5.43436,-3.61315 -12.14815,-3.859557 -18.43098,-4.192297 -5.9511,-0.17563 -9.13321,-0.492019 -14.03922,2.363153 z m 8.3827,3.596799 c 4.02301,-0.57838 17.13264,-4.055296 17.44391,13.581194 0.14051,10.170292 -2.68803,22.20595 -6.29467,33.573958 -1.42914,4.547923 -10.60668,2.604347 -12.6803,1.727094 -1.77382,-3.769281 -0.83758,-8.207957 -1.09641,-12.276561 0.16552,-8.71466 -0.41398,-21.128381 0.73892,-29.786473 0.2132,-1.411976 0.27223,-7.009633 1.88855,-6.819212 z m 21.93259,2.178579 c 3.29602,0.961707 4.9788,10.261653 4.30711,15.600627 -2.77394,23.338313 -7.22098,34.908145 -10.97607,29.050217 5.72368,-12.10855 6.40698,-24.063959 6.37192,-31.969312 -0.0351,-7.905353 -2.99898,-13.64324 0.29704,-12.681532 z m 3.27666,48.483122 c 3.24179,0.789861 4.91651,7.919165 0.0749,4.780598 -2.34876,-1.050237 -2.45215,-3.723376 -0.0749,-4.780598 z" />
      <path
         style="fill:#ffffff;stroke:#000000;stroke-width:1.82007;stroke-linecap:square;stroke-linejoin:bevel;stroke-miterlimit:22.6;stroke-dasharray:none;stroke-opacity:1;paint-order:stroke fill markers"
         d="m 260.06123,114.96547 c 0.13136,-28.357224 0.0637,-61.48983 0.56338,-89.843267 0.35572,-2.587943 -5.73516,-1.940058 -6.82751,-0.390287 -1.19243,5.566833 -0.35055,16.124052 -0.37934,21.779785 1.30178,29.7679 -0.36675,56.620459 -0.11058,86.394949 -1.78672,4.72781 1.97725,5.31982 5.56128,4.14406 1.56872,-4.40428 0.86731,-9.26666 1.14688,-13.86858 0.0292,-3.71631 0.0381,-4.50223 0.0459,-8.21666 z"
         id="path29807" />
      <path
         style="fill:#ffffff;stroke:#000000;stroke-width:1.82007;stroke-linecap:square;stroke-linejoin:bevel;stroke-miterlimit:22.6;stroke-dasharray:none;stroke-opacity:1;paint-order:stroke fill markers"
         d="m 205.48854,136.81502 c 0.65154,-6.67088 0.0614,-13.42837 0.17735,-20.13288 -0.0539,-23.924818 -0.68127,-44.620394 -0.46805,-68.544971 0.0482,-6.273588 0.2836,-17.608232 0.55265,-23.821998 -3.19881,-1.590173 -8.79392,-0.434499 -6.40276,4.283948 0.75793,4.4822 0.28831,14.131686 0.4941,18.686118 0.0832,26.128292 0.16777,49.035387 -0.39444,75.158683 -0.33168,4.84804 -0.74669,9.73314 -1.42767,14.52308 2.27921,0.7466 5.21131,0.70033 7.46882,-0.15198 z"
         id="path29805" />
      <path
         id="path29799"
         style="fill:#ffffff;stroke:#000000;stroke-width:1.82007;stroke-linecap:square;stroke-linejoin:bevel;stroke-miterlimit:22.6;stroke-dasharray:none;stroke-opacity:1;paint-order:stroke fill markers"
         d="m 169.59778,24.085062 c -8.16256,0.342557 -22.86733,-0.961416 -24.49934,1.482937 -1.03747,9.520581 1.88936,4.208224 8.22806,4.053046 6.41007,-1.169061 13.98504,10.414662 12.62211,16.274997 0.38455,9.279969 -2.04129,18.577798 -1.47391,27.852343 1.32183,6.407891 -5.20863,-2.721848 -8.88691,-5.217874 -1.47971,-2.01041 -5.7738,-5.285422 -6.74415,-3.011964 2.28007,4.765622 6.60436,8.65259 10.13721,12.398455 3.68042,3.124358 7.58077,7.114354 7.31861,12.330482 0.57864,11.456826 0.17098,19.270136 0.28986,30.736836 -0.0728,4.86632 -0.21893,10.5628 -1.63341,13.70004 2.39879,4.31993 9.71285,2.37913 13.29116,2.07706 3.21425,-4.2916 -0.0541,-8.70712 0.7186,-14.65937 -0.24327,-29.164759 -0.56933,-59.441479 -0.17112,-88.609013 1.3692,-5.652426 8.91588,-2.663454 13.115,-2.937536 2.85433,-1.630072 2.54123,-6.379739 -3.30334,-6.31489 -6.33552,-0.114353 -12.67239,-0.09316 -19.00843,-0.155549 z m 2.35334,5.970694 c 4.18544,4.361947 1.61786,15.446957 2.50984,20.730474 0.15598,27.873034 0.0499,52.07923 -0.0291,79.95232 -0.88377,4.17542 -4.62302,-0.0138 -3.07433,-2.50248 -0.77005,-18.1841 1.02575,-33.217275 -2.57445,-51.172376 -1.12174,-13.09415 1.4389,-30.125405 0.49233,-43.660589 0.25349,-1.566412 0.82562,-3.943535 2.67573,-3.347349 z" />
    </g>
  </g>
</svg>
